<svg xmlns="http://www.w3.org/2000/svg" viewBox="0 0 100 100" ><g
bg = "black"
        stroke-linecap="round"
        stroke-width="0.1"
        stroke="rgb(0, 0, 0)"
        fill="green"
    ><path d="M46.9,96c0,0.8,0.7,1.5,1.5,1.5c0.8,0,1.5-0.7,1.5-1.5v-4.1h-3V96z"></path><path d="M38.8,96c0,0.8,0.7,1.5,1.5,1.5s1.5-0.7,1.5-1.5v-4.1h-3V96z"></path><path d="M87.4,5.1c-0.1-2.3-3-3.4-4.6-1.8C69.2,17.2,48,16.7,46.7,31.4c-0.3,3.2,0.8,6.3,2.9,9c10-10,20.7-13.5,21.2-13.6     c0.1,0,0.2-0.1,0.4-0.1c-2.8,1.6-19,11.5-26.1,29.7c-3.7-5.7-9.4-12.7-14.2-16.6c-3.2-3-5.9-4.8-6.8-5.3c0.1,0,0.1,0,0.2,0.1     c0.4,0.1,8.6,2.1,15.7,9.6c1.4-1.9,1.8-3.3,1.6-5.6c-0.7-10.7-16-10.7-25.7-21c-1.2-1.2-3.2-0.5-3.4,1.2     c-0.7,9.5,0.2,25.8,6.9,30.6c3.7,2.7,9.5,2.3,14.1,0.2c4,4.5,7.8,9.9,9.4,13.3c-0.8,3.3-1.2,6.7-1.3,10.4v4.2     c-3,1-5.1,3.8-5.1,7.2v2.7h-0.4c-0.8,0-1.5,0.7-1.5,1.5s0.7,1.5,1.5,1.5h16c0.8,0,1.5-0.7,1.5-1.5s-0.7-1.5-1.5-1.5H52v-2.7     c0-3.4-2.2-6.2-5.2-7.2v-4.1c0.2-11.1,4.6-20.2,9.9-27c6.4,3.5,14.6,4.5,20.2,0.7C86.3,40.7,88.1,18.2,87.4,5.1z"></path></g></svg>


